<?xml version="1.0" encoding="utf-8"?>
<!-- Generator: Adobe Illustrator 25.2.0, SVG Export Plug-In . SVG Version: 6.00 Build 0)  -->
<svg version="1.1" xmlns="http://www.w3.org/2000/svg" xmlns:xlink="http://www.w3.org/1999/xlink" x="0px" y="0px"
	 viewBox="0 0 1000 1000" style="enable-background:new 0 0 1000 1000;" xml:space="preserve">
<style type="text/css">
	.st0{fill:#C03C3C;}
	.st1{fill:#C03C3C;stroke:#C03C3C;stroke-miterlimit:10;}
	.st2{fill:#C03C3C;stroke:#C03C3C;stroke-linecap:round;stroke-linejoin:round;stroke-miterlimit:10;}
	.st3{display:none;}
	.st4{display:inline;fill:none;stroke:#000000;stroke-width:11;stroke-linecap:round;stroke-linejoin:round;stroke-miterlimit:10;}
	.st5{display:inline;stroke:#000000;stroke-width:11;stroke-linecap:round;stroke-linejoin:round;stroke-miterlimit:10;}
	.st6{display:inline;}
	.st7{display:inline;fill:none;stroke:#000000;stroke-width:12;stroke-linecap:round;stroke-linejoin:round;stroke-miterlimit:10;}
	.st8{display:inline;fill:none;stroke:#231F20;stroke-linecap:round;stroke-linejoin:round;stroke-miterlimit:10;}
</style>
<g id="Color">
	<path class="st0" d="M822.03,455.06c-9.01-28.82-12.39-63.48-96-139.35c-76.47-69.39-203.55-73.43-231.59-69.68
		c-26.65-3.48-131.16-3.49-229.83,75.87c-71.23,57.29-97.04,115.26-101.85,151.44c-13.62,102.5-5.92,141.2,12.82,207.4
		c16.33,57.68,54.4,135.23,105.26,168.39l0.01,0.01c26.33,19.77,55.42,36.06,86.58,48.19c41.1,16.02,85.81,24.8,132.57,24.8
		c68.38,0,132.37-18.78,187.1-51.47c10.49-6.26,20.63-13.03,30.4-20.28c2.48-1.84,4.94-3.72,7.37-5.62
		c57.66-45.08,73.98-106.47,96.39-177.95C822.3,663.49,853,554.16,822.03,455.06z M671.16,841.13
		c-35.82,27.11-95.24,46.8-166.55,47.71c-80.37,1.02-143.06-27.47-182.58-52.43c-35.34-22.33-59.03-59.08-64.32-100.55
		c-0.49-3.83,50.26-33.05,72.32-37.7c8.14-1.71,6.23-144.73,8.13-128.52c5.25,44.8,40.95,103.09,49.89,98.48
		c22.29-11.48,45.81-8.66,62.76-9.23c-7.87-12.35-19.15-33.46-24.39-61.93c-5.93-32.2-1.37-58.72,2.32-73.52
		c3.81,18.05,12.64,48.39,34.84,79.71c20.19,28.48,43.11,46.02,58.07,55.74c12.93-0.81,27.48-0.48,43.38,0.5
		c11.06,0.68,3.91-129.37,6.14-110.66c3.64,30.53,58.16,130.74,70,135.49c45,18.05,91.39,39.47,91.45,40.54
		C735.53,772.04,712.1,810.13,671.16,841.13z M494.44,224.57l0.01,0.01l0.01-0.01C494.45,224.57,494.44,224.57,494.44,224.57z"/>
	<path class="st0" d="M1260.23,614.55"/>
	<path class="st1" d="M606.94,261.15c0,0-155.89-40.28-69.96-98.34c0,0-165.55,33.42-85.03,114.71S606.94,261.15,606.94,261.15z"/>
	<path class="st2" d="M685.52,764.07c-109.16-55.74-134.36,20.41-134.36,20.41s34.84-35.61,101.42-5.42L685.52,764.07z"/>
	<path class="st2" d="M306.17,764.07c109.16-55.74,134.36,20.41,134.36,20.41s-34.84-35.61-101.42-5.42L306.17,764.07z"/>
</g>
<g id="Lines" class="st3">
	<path class="st4" d="M400.1,775.42c0,21.59-14.91,39.09-33.29,39.09c-18.39,0-33.29-17.5-33.29-39.09c0-21.6,14.9-39.1,33.29-39.1
		C385.19,736.32,400.1,753.82,400.1,775.42z"/>
	<path class="st4" d="M694.16,740.78c-2.26,4.96-3.86,10.75-9.24,17.08c-8.25,9.71-19.21,15.81-25.45,18.96
		c-0.29,0.15-0.18,0.59,0.15,0.59h24.35c0.09,0.12,0.18,0.29,0.26,0.5c1.69,5.05-18.62,18.64-37.36,24.89
		c-9.2,3.07-35.16-8.55-61.63-4.1c-8.56,1.44-17.98-15.19-12.38-34.26c5.15-17.57,18.03-23.27,20.38-24.19
		c13.87-5.42,24.7-4.59,39.89-1.36c8.46,1.8,15.51,5.92,21.23,8.92c1.73,0.41,3.39,0.8,5.12,1.21c12.05-0.12,23.35-3.58,34.3-8.63
		C694.03,740.28,694.28,740.53,694.16,740.78z"/>
	<path class="st4" d="M932.74,466.9c-3.01-12.15-73.37-65.45-83.61-76.65c-11.54-12.61-30.19-27.87-53.76-50.09
		c-6.39-6.03-30.38-26.36-67.81-48.33c-30.21,8.57-92.48-12.82-139-28.81c-40.31-13.85-72.51-28.13-94.11-38.44
		c-49.97,31.24-117.74,42.19-144.68,63.26c-34.13,26.71-71.14,21.56-91.55,7.21c-22.42,14.02-45.08,30.47-67.9,49.65
		c-28.89,24.29-52.59,49.36-61.19,54.85c-19.54,12.46-63.12,56.1-65.79,67.76c-0.14,0.63-0.28,1.27-0.4,1.91
		c-4.99,25.4,63.75,113.83,73.26,121.68v0.01c9.78,105.5,64.41,197.99,144.64,258.22l0.01,0.01c26.33,19.77,55.42,36.06,86.58,48.19
		c41.1,16.02,85.81,24.8,132.57,24.8c68.38,0,132.37-18.78,187.1-51.47c10.49-6.26,20.63-13.03,30.4-20.28
		c2.48-1.84,4.94-3.72,7.37-5.62c57.66-45.08,101.43-107.1,123.84-178.58c5.59-17.83,12.13-43.39,15.09-75.27
		C872.02,583.73,939.41,493.78,932.74,466.9z M671.16,841.13c-35.82,27.11-95.24,46.8-166.55,47.71
		c-80.37,1.02-143.06-27.47-182.58-52.43c-35.34-22.33-59.03-59.08-64.32-100.55c-0.86-6.74-1.43-13.82-1.61-21.22
		c-1.25-49.77,15.55-87.18,24.74-104.51c2.05,13.64,7.41,36.14,23.26,58.6c7.25,10.28,15.01,18.16,21.84,24.06
		c15.49-8.4,36.37-17.84,62.11-24.66c24.24-6.42,45.81-8.66,62.76-9.23c-7.87-12.35-19.15-33.46-24.39-61.93
		c-5.93-32.2-1.37-58.72,2.32-73.52c3.81,18.05,12.64,48.39,34.84,79.71c20.19,28.48,43.11,46.02,58.07,55.74
		c12.93-0.81,27.51-0.87,43.38,0.5c33.39,2.87,61.2,11.09,82.03,19.24c8.97-6.93,19.64-16.43,30.2-29.03
		c9.81-11.71,16.93-23.02,22.06-32.51c11.29,19.02,28.86,54.48,32.91,102.19c0.15,1.84,0.29,3.67,0.4,5.48
		C735.53,772.04,712.1,810.13,671.16,841.13z M494.44,224.57l0.01,0.01l0.01-0.01C494.45,224.57,494.44,224.57,494.44,224.57z"/>
	<path class="st4" d="M400.1,775.42c0,21.59-14.91,39.09-33.29,39.09c-18.39,0-33.29-17.5-33.29-39.09c0-21.6,14.9-39.1,33.29-39.1
		C385.19,736.32,400.1,753.82,400.1,775.42z"/>
	<path class="st4" d="M694.16,740.78c-2.26,4.96-3.86,10.75-9.24,17.08c-8.25,9.71-19.21,15.81-25.45,18.96
		c-0.29,0.15-0.18,0.59,0.15,0.59h24.35c0.09,0.12,0.18,0.29,0.26,0.5c1.69,5.05-18.62,18.64-37.36,24.89
		c-9.2,3.07-35.16-8.55-61.63-4.1c-8.56,1.44-17.98-15.19-12.38-34.26c5.15-17.57,18.03-23.27,20.38-24.19
		c13.87-5.42,24.7-4.59,39.89-1.36c8.46,1.8,15.51,5.92,21.23,8.92c1.73,0.41,3.39,0.8,5.12,1.21c12.05-0.12,23.35-3.58,34.3-8.63
		C694.03,740.28,694.28,740.53,694.16,740.78z"/>
	<path class="st5" d="M400.1,775.42c0,21.59-14.91,39.09-33.29,39.09c-18.39,0-33.29-17.5-33.29-39.09c0-21.6,14.9-39.1,33.29-39.1
		C385.19,736.32,400.1,753.82,400.1,775.42z"/>
	<g class="st6">
		<path d="M450.4,818.21c2.5,2.42,5.34,4.64,8.34,6.56c3,1.92,6.16,3.55,9.43,4.85c6.52,2.61,13.47,3.81,20.35,3.54
			c6.88-0.16,13.59-1.94,19.81-4.86c3.12-1.45,6.08-3.27,8.87-5.3c2.78-2.01,5.44-4.36,7.56-6.69c3.81-4.17,10.27-4.47,14.44-0.66
			c4.17,3.81,4.47,10.27,0.66,14.44c-0.13,0.14-0.29,0.31-0.43,0.44c-3.55,3.45-7.19,6.26-11.12,8.8
			c-3.91,2.51-8.03,4.72-12.37,6.45c-8.64,3.5-18.08,5.4-27.42,5.09c-9.31-0.17-18.58-2.36-26.9-6.26
			c-4.17-1.93-8.11-4.27-11.79-6.94c-3.68-2.67-7.1-5.65-10.24-9.06c-2.81-3.04-2.61-7.79,0.43-10.59c2.93-2.7,7.45-2.62,10.28,0.11
			L450.4,818.21z"/>
	</g>
	<g class="st6">
		<path d="M450.4,818.21c2.5,2.42,5.34,4.64,8.34,6.56c3,1.92,6.16,3.55,9.43,4.85c6.52,2.61,13.47,3.81,20.35,3.54
			c6.88-0.16,13.59-1.94,19.81-4.86c3.12-1.45,6.08-3.27,8.87-5.3c2.78-2.01,5.44-4.36,7.56-6.69c3.81-4.17,10.27-4.47,14.44-0.66
			c4.17,3.81,4.47,10.27,0.66,14.44c-0.13,0.14-0.29,0.31-0.43,0.44c-3.55,3.45-7.19,6.26-11.12,8.8
			c-3.91,2.51-8.03,4.72-12.37,6.45c-8.64,3.5-18.08,5.4-27.42,5.09c-9.31-0.17-18.58-2.36-26.9-6.26
			c-4.17-1.93-8.11-4.27-11.79-6.94c-3.68-2.67-7.1-5.65-10.24-9.06c-2.81-3.04-2.61-7.79,0.43-10.59c2.93-2.7,7.45-2.62,10.28,0.11
			L450.4,818.21z"/>
	</g>
	<path class="st4" d="M694.16,740.78c-2.26,4.96-3.86,10.75-9.24,17.08c-8.25,9.71-19.21,15.81-25.45,18.96
		c-0.29,0.15-0.18,0.59,0.15,0.59h24.35c0.09,0.12,0.18,0.29,0.26,0.5c1.69,5.05-18.62,18.64-37.36,24.89
		c-9.2,3.07-35.16-8.55-61.63-4.1c-8.56,1.44-17.98-15.19-12.38-34.26c5.15-17.57,18.03-23.27,20.38-24.19
		c13.87-5.42,24.7-4.59,39.89-1.36c8.46,1.8,15.51,5.92,21.23,8.92c1.73,0.41,3.39,0.8,5.12,1.21c12.05-0.12,23.35-3.58,34.3-8.63
		C694.03,740.28,694.28,740.53,694.16,740.78z"/>
	<g class="st6">
		<path d="M354.08,783.89c-0.66,0.21-0.89,0.32-1.29,0.43c-0.36,0.1-0.7,0.18-1.04,0.23c-0.68,0.11-1.34,0.15-2,0.14
			c-1.31-0.04-2.61-0.31-3.89-0.69c-2.55-0.7-5.04-1.5-7.5-2.41c-2.46-0.9-4.88-1.92-7.24-3.1c-2.36-1.16-4.69-2.45-6.92-3.89
			c-4.45-2.89-8.62-6.48-11.77-10.75c-1.57-2.14-2.84-4.46-3.77-6.8c-0.89-2.39-1.4-4.81-1.56-7.15c-0.04-0.58,0.4-1.08,0.98-1.12
			c0.28-0.02,0.54,0.07,0.74,0.23l0.05,0.04c1.72,1.4,3.48,2.51,5.27,3.34c1.81,0.81,3.64,1.33,5.44,1.66
			c1.8,0.34,3.64,0.42,5.41,0.42c1.78,0,3.58-0.17,5.35-0.44c3.53-0.46,7.07-1.45,10.48-2.55c1.71-0.57,3.4-1.21,5.03-1.91
			c0.82-0.37,1.61-0.7,2.38-0.82c0.38-0.06,0.76-0.08,1.13-0.03c0.18,0.02,0.36,0.06,0.52,0.12c0.12,0.06,0.41,0.13,0.27,0.28
			c9.6-1.09,18.27,5.81,19.37,15.41C370.58,774.13,363.68,782.8,354.08,783.89z"/>
	</g>
	<path class="st7" d="M494.45,224.58c-49.97,31.24-117.74,42.19-144.68,63.26c-34.13,26.71-71.14,21.56-91.55,7.21
		c-12.37-8.7-18.65-20.78-14.51-31.21c4.64-26.32,18.93-30.97,11.61-51.87c-10.84-30.97-3.99-57.08,4.56-68.74
		c11.4-15.52,133.24-9.55,234.56,81.34L494.45,224.58z"/>
	<path class="st7" d="M741.18,283.2c-3.1,4.18-7.76,6.97-13.62,8.63c-30.21,8.57-92.48-12.82-139-28.81
		c-40.31-13.85-72.51-28.13-94.11-38.44l0.01-0.01c118.55-113.25,234.69-99.32,242.41-86.92c6.86,11.01,18.76,40.91-4,68.12
		c-10.15,12.14,7.92,23.43,11.79,43C745.57,253.35,749.31,272.25,741.18,283.2z"/>
	<path class="st8" d="M456.61,194.94c0,0,34.83-23.23,72.38,0s-34.55,29.64-34.55,29.64L456.61,194.94z"/>
</g>
</svg>
